<?xml version="1.0" encoding="utf-8"?>
<svg version="1.1" id="icon" xmlns="http://www.w3.org/2000/svg" xmlns:xlink="http://www.w3.org/1999/xlink" viewBox="0 0 256 256" style="enable-background:new 0 0 256 256;" xml:space="preserve">
<style type="text/css">
	.st0{fill:#FFD426;}
	.st1{fill:#222222;}
	.st2{fill:none;stroke:#222222;stroke-width:4;stroke-miterlimit:10;}
</style>
<rect id="icon_bg" class="st0" width="256" height="256"/>
<g id="icon_group">
	<g id="icon_text1">
		<path id="text1" class="st1" d="M64.4,60.9h27.9v55.8c0,4.4,0.1,10.7,0.1,10.7s25.2,0.2,29.3,0.2h1.4v27.2H96.7
			c-10.2,0-32.3,0.1-32.3,0.1s-0.2-23.1,0-33.7V60.9z"/>
		<path id="text2" class="st1" d="M122.6,60.9h34.1c20.2,0,30.3,8,30.3,23.9c0,7.9-3.5,14.4-10.4,19.7
			c10,4.4,15.1,12.1,15.1,23.3c0,8.6-3,15.4-8.9,20.5c-2.9,2.4-6,4.1-9.3,5.1s-7.8,1.4-13.3,1.4h-5.3v-24.1h4.7
			c2.8,0,4.8-0.4,5.9-1.1c1.1-0.7,1.7-2,1.7-3.7c0-3-2.3-4.5-7-4.5h-5.4v-25c5.1,0,7.7-1.8,7.7-5.3c0-3.3-2.3-4.9-6.9-4.9h-5.2v68.7
			h-27.9V60.9z"/>
	</g>
	<g id="icon_text2">
		<g id="text_group3">
			<path id="text1" class="st1" d="M66.8,158.5l3.3,0.2v16.3h-1c-0.6,0-1.4,0.1-2.3,0.2V175c0.8-0.3,1.3-0.8,1.6-1.4
				c0.3-0.7,0.4-1.7,0.4-3.2v-7.4c0-1.6-0.2-2.6-0.6-3.1c-0.4-0.5-0.9-0.8-1.4-0.9V158.5z M78.3,175.1h-7.2v-16.3
				c0.7,0,1.5-0.1,2.4-0.1c0.8,0,1.2-0.1,1.1-0.1v0.3c-0.8,0.2-1.4,0.6-1.7,1.2c-0.3,0.6-0.5,1.6-0.5,2.8v6.7c0,1,0.1,1.9,0.2,2.7
				c0.1,0.8,0.2,1.3,0.3,1.4c0.1,0.1,0.4,0.2,0.9,0.2h3.3c1.1,0,2.1-0.2,2.9-0.5c0.8-0.4,1.4-1.1,2-2.1h0.3
				c-0.1,0.5-0.3,1.3-0.7,2.4c-0.3,0.7-0.4,1.2-0.5,1.6C80.2,175.1,79.3,175.1,78.3,175.1z"/>
			<path id="text4" class="st1" d="M94.7,158.7v16.3c-0.7,0-1.9,0.1-3.4,0.2V175c0.8-0.2,1.3-0.7,1.7-1.3
				c0.3-0.7,0.5-1.9,0.5-3.7V163c0-1.3-0.2-2.3-0.5-3c-0.3-0.6-0.9-1-1.6-1.2v-0.3C92.6,158.6,93.7,158.7,94.7,158.7z M95.9,175.1
				v-16.3c1.3,0,2.4-0.1,3.4-0.2v0.3c-0.6,0.1-1.1,0.4-1.5,1c-0.4,0.6-0.6,1.7-0.6,3.5v7.4c0,1.6,0.2,2.7,0.7,3.2
				c0.4,0.5,0.9,0.9,1.5,1v0.3C98.3,175.1,97.2,175.1,95.9,175.1z"/>
			<path id="text5" class="st1" d="M112.3,160.1c-1.3,1.8-1.9,4.1-1.9,6.8c0,0.6,0.1,1.6,0.2,2.7c0.1,1.2,0.6,2.4,1.3,3.6
				c-2-1.6-3-3.7-3-6.4c0-1.7,0.3-3.1,1-4.2C110.7,161.6,111.4,160.7,112.3,160.1z M122.5,166.5v7.8c-1.6,0.7-3.1,1-4.3,1
				c-2,0-3.6-0.7-4.9-2c-0.6-0.7-1.1-1.5-1.4-2.5c-0.3-1-0.5-2.2-0.5-3.6c0-5.9,2.5-8.9,7.4-8.9c1.8,0,3.6,0.3,5.3,0.9
				c0,1,0,1.7,0,2.2c0,0.4,0,1,0,1.6h-0.3c-0.2-1.1-0.8-2-1.8-2.6c-0.9-0.6-2.1-1-3.4-1c-4,0-6,2.4-6,7.2c0,4.9,1.7,7.4,5.1,7.4
				c1.4,0,2.3-0.3,2.9-1c0.2-0.3,0.3-1,0.3-1.9v-2.1c0-1.5-0.5-2.4-1.6-2.6v-0.3c0.4,0,0.9,0.1,1.6,0.1
				C121.7,166.5,122.2,166.5,122.5,166.5z M123.7,174v-7.5c0.5,0,1-0.1,1.4-0.1c0.7-0.1,1.1-0.1,1.3-0.1v0.3c-0.9,0.4-1.4,1.4-1.4,3
				v3.9c-0.1,0-0.3,0.1-0.6,0.2c-0.2,0-0.3,0.1-0.4,0.1S123.7,174,123.7,174z"/>
			<path id="text5" class="st1" d="M138.6,158.7v16.3l-3.3,0.2V175c0.5-0.1,0.9-0.4,1.3-0.8c0.3-0.4,0.5-0.9,0.7-1.4
				c0.1-0.5,0.2-1.4,0.2-2.7v-7.2c0-1.5-0.2-2.6-0.6-3.1c-0.4-0.5-0.9-0.9-1.5-1v-0.3C135.9,158.6,137.1,158.7,138.6,158.7z
				 M150.2,158.7v16.3c-0.5,0-1.6,0.1-3.4,0.2V175c0.6-0.1,1.1-0.5,1.6-1.1s0.6-1.7,0.6-3.4v-3.3H141v3.8c0,1.5,0.2,2.4,0.6,2.9
				c0.4,0.5,0.9,0.8,1.5,1v0.3c-1.3-0.1-2.4-0.2-3.4-0.2v-16.3c0.9,0,2.1-0.1,3.4-0.2v0.3c-0.8,0.2-1.4,0.7-1.7,1.3
				c-0.3,0.6-0.5,1.7-0.5,3.3v2.6h7.9v-3c0-1.3-0.2-2.3-0.5-2.9c-0.4-0.7-0.9-1.1-1.6-1.3v-0.3C147.9,158.6,149,158.7,150.2,158.7z
				 M151.3,175.1v-16.3c1.1,0,2.2-0.1,3.4-0.2v0.3c-1.3,0.4-2,1.6-2,3.8l0,1.5v7c0,2.3,0.7,3.6,2.1,3.9v0.3
				C152.7,175.1,151.6,175.1,151.3,175.1z"/>
			<path id="text6" class="st1" d="M167.2,158.7h5.1v16.3h-0.5c-0.7,0-1.7,0.1-3,0.2V175c0.9-0.2,1.4-0.7,1.8-1.3
				c0.3-0.7,0.5-1.7,0.5-3.3v-10.6h-4c-1,0-1.7,0.2-2.1,0.6c-0.4,0.4-0.8,1.2-1,2.3h-0.4c0-0.1,0-0.3,0-0.4c0-0.2,0-0.5,0.1-0.8
				c0.1-1.1,0.2-2.1,0.2-3c0.5,0.1,1.2,0.1,2,0.1L167.2,158.7z M173.8,175.1h-0.4v-16.3h5.6c1,0,2-0.1,3-0.2c0,0.2,0,0.6,0,1.1
				c0,0.5,0,1.1,0,1.8c0,0.5,0,0.9-0.1,1.4h-0.4c0-0.8-0.2-1.6-0.6-2.1c-0.4-0.6-1.3-0.9-2.6-0.9h-3.5v11.1c0,1.3,0.2,2.2,0.5,2.9
				c0.4,0.6,0.9,1,1.7,1.2v0.3C175.1,175.1,174.1,175.1,173.8,175.1z"/>
		</g>
		<g id="text_group2">
			<path id="text7" class="st1" d="M70.1,177.7v17c-0.9,0-2.1,0.1-3.4,0.2v-0.3c1.4-0.4,2.1-1.8,2.1-4.4v-8.4
				c0-2.2-0.7-3.6-2.1-4v-0.3C67.8,177.6,68.9,177.6,70.1,177.7z M71.2,194.6v-17l2.8-0.2c1.4,0,2.4,0.4,3.3,1.3
				c0.8,0.9,1.2,1.9,1.2,3.3c0,1.7-0.7,2.8-2.2,3.6c2.3,0.5,3.5,2,3.5,4.5c0,1.3-0.4,2.4-1.1,3.3c-0.8,0.9-2,1.4-3.7,1.4
				c-0.6,0-1.3,0-2.1-0.1C72.2,194.7,71.6,194.6,71.2,194.6z M72.6,182.1v3.2h1.2c1,0,1.8-0.3,2.4-0.8c0.6-0.6,0.8-1.4,0.8-2.4
				c0-1.1-0.3-1.9-0.9-2.5c-0.6-0.6-1.3-0.8-2.2-0.8c-0.5,0-0.8,0.1-1.1,0.3C72.7,179.6,72.6,180.6,72.6,182.1z M74.2,186.4h-1.6
				v2.9c0,2,0.2,3.3,0.7,3.8c0.4,0.3,0.9,0.4,1.7,0.4c1.3,0,2.2-0.4,2.7-1.1c0.5-0.7,0.8-1.6,0.8-2.6c0-0.8-0.2-1.5-0.5-2
				c-0.3-0.6-0.8-1-1.3-1.2C76,186.6,75.2,186.4,74.2,186.4z M78.7,185.1c0.7-0.9,1-1.9,1-3.1c0-0.9-0.2-1.8-0.5-2.5
				c-0.4-0.8-0.8-1.3-1.3-1.5c1.1,0.2,1.9,0.7,2.4,1.4c0.6,0.7,0.9,1.5,0.9,2.3c0,0.8-0.2,1.5-0.7,2.1
				C79.9,184.4,79.3,184.9,78.7,185.1z M79.5,194.2c1-1,1.5-2.4,1.5-4c0-1.7-0.5-3.1-1.5-4.2c2,0.7,3.1,2.1,3.1,4.1
				c0,1-0.3,1.8-0.9,2.6C81,193.4,80.3,193.9,79.5,194.2z"/>
			<path id="text8" class="st1" d="M101.9,190.7l-1.4-3h-6.1l-1.5,3l-0.1,0.2c0,0-0.1,0.2-0.2,0.5c-0.2,0.5-0.3,0.9-0.3,1.4
				c0,0.8,0.5,1.4,1.4,1.7v0.3c-0.2,0-0.5,0-0.9-0.1c-0.6-0.1-1.2-0.1-1.7-0.1c-0.5,0-1,0-1.7,0.1c-0.5,0.1-0.8,0.1-0.9,0.1v-0.3
				c1.2-0.6,2.3-1.8,3.2-3.7l5.3-10.4c-0.4-0.8-1-1.5-1.7-1.9s-1.5-0.7-2.5-0.7v-0.3h0.6c0.5,0,1.2,0,2.1,0.1
				c0.9,0.1,1.5,0.1,1.8,0.1l8.1,17c-1,0-2.3,0.1-3.8,0.2v-0.3c0.8-0.1,1.2-0.6,1.2-1.3C102.7,192.7,102.4,191.8,101.9,190.7z
				 M95,186.5h4.9l-2.3-4.9L95,186.5z M106.5,194.6l-8.1-17h1.6c0.2,0.6,0.5,1.3,0.9,2.1c0.4,0.9,0.7,1.5,0.7,1.6
				c0.1,0.1,0.1,0.2,0.1,0.3l3.8,7.8c1.3,2.7,2.7,4.4,4.2,5v0.3C108.3,194.7,107.2,194.6,106.5,194.6z"/>
			<path id="text9" class="st1" d="M120.2,177.7v17c-0.5,0-1.6,0.1-3.3,0.2v-0.3c1.3-0.3,1.9-1.3,1.9-3v-10.7
				c0-1-0.1-1.7-0.4-2.1c-0.3-0.5-0.8-0.8-1.5-1v-0.3C117.9,177.6,119,177.6,120.2,177.7z M123.4,184.8l8.9,9.8h-1.8l-7.9-8.8v5.7
				c0,0.9,0.1,1.6,0.4,2c0.3,0.5,0.8,0.8,1.6,1v0.3c-1.4-0.1-2.5-0.2-3.3-0.2v-17c1.5-0.1,2.6-0.1,3.3-0.2v0.3
				c-0.8,0.2-1.3,0.5-1.6,1.1c-0.3,0.5-0.4,1.7-0.4,3.6v3L123.4,184.8z M134.6,194.6h-0.7l-9.6-10.6l3.7-2.9c1.3-1,1.9-1.8,1.9-2.3
				c0-0.4-0.3-0.8-1-1v-0.3c0.5,0,1.1,0,1.9,0.1c0.7,0.1,1.3,0.1,1.6,0.1c0.3,0,0.8,0,1.3-0.1c0.7-0.1,1.4-0.1,2-0.1v0.3
				c-1.5,0.4-3.2,1.3-4.9,2.7l-1.1,0.8c-0.1,0.1-0.2,0.1-0.2,0.2l-3.4,2.7l6.4,7.1c1.9,2.2,3.4,3.3,4.4,3.3v0.3
				C135.4,194.7,134.7,194.6,134.6,194.6z"/>
			<path id="text10" class="st1" d="M144.1,189.1h0.4c0.1,1.4,0.6,2.5,1.7,3.4c1,0.9,2.2,1.3,3.5,1.3c1,0,1.8-0.3,2.5-0.9
				c0.6-0.6,1-1.3,1-2c0-0.8-0.3-1.5-0.9-1.9c-0.6-0.5-1.8-1-3.5-1.5c-1.4-0.5-2.4-0.8-3-1.1c-0.7-0.4-1.2-0.8-1.6-1.4
				c-0.4-0.6-0.6-1.3-0.6-2.1c0-0.8,0.3-1.7,0.9-2.5c-0.1,0.4-0.2,0.8-0.2,1.1c0,0.8,0.2,1.6,0.6,2.2c0.4,0.7,0.9,1.1,1.5,1.5
				c0.6,0.3,1.6,0.7,3,1.2c1.8,0.6,3.2,1.2,4,1.9c0.8,0.7,1.2,1.5,1.2,2.6c0,1.1-0.4,2.1-1.2,2.9c-0.8,0.9-2.1,1.3-3.7,1.3
				c-0.7,0-1.6-0.1-2.8-0.4c-1-0.2-1.8-0.3-2.3-0.3l-0.1-0.1c0-0.2,0-0.4,0-0.7c0-0.3,0-0.9-0.1-1.6c-0.1-0.7-0.1-1.3-0.1-1.6
				C144.1,189.8,144.1,189.4,144.1,189.1z M155.5,182.3h-0.3c0-1.2-0.5-2.2-1.5-2.8c-1-0.6-2.1-0.9-3.5-0.9c-1.1,0-2,0.2-2.7,0.7
				c-0.7,0.5-1.1,1-1.1,1.7c0,0.7,0.3,1.2,0.8,1.6c0.6,0.4,1.7,0.9,3.4,1.5c1.6,0.5,2.7,1,3.3,1.3c0.7,0.4,1.2,0.9,1.7,1.6
				c0.5,0.7,0.7,1.5,0.7,2.4c0,1.3-0.5,2.4-1.5,3.2c0.4-0.5,0.5-1.2,0.5-2.1c0-0.9-0.2-1.6-0.6-2.3c-0.4-0.7-0.9-1.2-1.5-1.6
				c-0.6-0.4-1.6-0.8-3-1.3c-2.1-0.7-3.5-1.3-4.1-1.8c-0.6-0.5-1-1.3-1-2.4c0-1.2,0.5-2.2,1.5-2.9c1-0.7,2.4-1,4.2-1
				c1.2,0,2.7,0.2,4.5,0.6v0.1l0,0.6c0,0.3,0,0.7,0,1.2c0,0.5,0,1,0,1.4C155.5,181.6,155.5,181.9,155.5,182.3z"/>
			<path id="text11" class="st1" d="M167,179.2c-1.2,1.8-1.8,4.2-1.8,7c0,2.6,0.6,4.8,1.7,6.7c-2.2-1.4-3.3-3.7-3.3-6.9
				C163.7,182.8,164.8,180.5,167,179.2z M180.6,186.1c0,2-0.3,3.6-0.9,5c-0.6,1.4-1.4,2.4-2.5,3c-1.1,0.7-2.3,1-3.7,1
				c-2.2,0-4-0.8-5.2-2.4s-1.8-3.8-1.8-6.6c0-2.9,0.6-5.1,1.9-6.7c1.2-1.5,3-2.3,5.1-2.3c2.2,0,3.9,0.8,5.2,2.3
				C179.9,180.9,180.6,183.1,180.6,186.1z M179.1,186.1c0-5.1-1.9-7.7-5.6-7.7c-3.7,0-5.5,2.6-5.5,7.9c0,5,1.9,7.4,5.6,7.4
				C177.2,193.7,179.1,191.2,179.1,186.1z M180,193c1.2-1.6,1.8-4,1.8-7.2c0-2.8-0.6-5-1.7-6.6c2.2,1.3,3.3,3.6,3.3,6.8
				C183.3,189.1,182.2,191.5,180,193z"/>
		</g>
	</g>
</g>
<rect id="icon_border" x="21.3" y="16" class="st2" width="213.3" height="224"/>
</svg>
